<?xml version="1.0" encoding="utf-8"?>
<!-- Generator: Adobe Illustrator 19.1.1, SVG Export Plug-In . SVG Version: 6.00 Build 0)  -->
<svg version="1.1" id="Ebene_1" xmlns="http://www.w3.org/2000/svg" xmlns:xlink="http://www.w3.org/1999/xlink" x="0px" y="0px"
	 viewBox="0 0 297.6 79.4" style="enable-background:new 0 0 297.6 79.4;" xml:space="preserve">
<style type="text/css">
	.st0{fill:#FFFFFF;}
	.st1{display:none;}
	.st2{display:inline;}
	.st3{display:none;opacity:0.4;}
</style>
<path class="st0" d="M198.4,0c47.1,12.5,73.4,40.3,99.2,79.4l-85,0L275,68c-21.9-27.6-66.3-47.6-95.8-51L198.4,0z"/>
<path class="st0" d="M182,55.3L34,68c31.4-26.6,95.7-47.9,150.2-68C120.2,15.5,42.5,44,0,79.4h198.4v-17
	C191.9,62.4,186.1,59.6,182,55.3z"/>
<circle class="st0" cx="198.4" cy="39.7" r="15.6"/>
<path class="st0" d="M198.4,0c0,0-28.3,17-28.3,39.7s28.3,39.7,28.3,39.7s28.3-17,28.3-39.7S198.4,0,198.4,0z M198.4,62.4
	c-12.5,0-22.7-10.2-22.7-22.7c0-12.5,10.2-22.7,22.7-22.7s22.7,10.2,22.7,22.7C221.1,52.2,210.9,62.4,198.4,62.4z"/>
<text transform="matrix(1 0 0 1 0.1667 117.0932)" class="st1" style="font-family:'AktivGrotesk-Light'; font-size:36px; letter-spacing:35;">VRBIKE</text>
<g class="st1">
	<path class="st2" d="M0.7,91.4h2.5l8.7,23.2l8.8-23.2H23l-10,25.7h-2.4L0.7,91.4z"/>
	<path class="st2" d="M62.3,91.4h8.1c1.8,0,3.4,0.2,4.6,0.6s2.1,0.9,2.8,1.6s1.2,1.4,1.4,2.2c0.3,0.8,0.4,1.7,0.4,2.6
		c0,1.6-0.4,3-1.1,4.2c-0.7,1.2-1.9,2-3.6,2.6l5.5,11.9h-2.6l-5.1-11.4c-0.4,0-0.8,0.1-1.3,0.1c-0.4,0-0.9,0.1-1.4,0.1h-5.6v11.2
		h-2.2V91.4z M70.7,103.9c1.3,0,2.4-0.1,3.2-0.4c0.9-0.3,1.5-0.6,2-1.1c0.5-0.5,0.9-1.1,1.1-1.7c0.2-0.7,0.3-1.4,0.3-2.3
		c0-0.8-0.1-1.6-0.3-2.2s-0.6-1.2-1.1-1.6c-0.5-0.4-1.3-0.8-2.2-1c-0.9-0.2-2-0.3-3.4-0.3h-5.8v10.6H70.7z"/>
	<path class="st2" d="M120.5,91.4h8.1c1.8,0,3.3,0.2,4.4,0.5c1.1,0.3,2,0.8,2.7,1.4s1.1,1.3,1.4,2s0.4,1.6,0.4,2.5
		c0,1.3-0.3,2.4-0.9,3.4c-0.6,1-1.6,1.7-3,2.3c0.9,0.3,1.7,0.7,2.3,1.1c0.6,0.4,1.1,0.9,1.5,1.5c0.4,0.6,0.6,1.1,0.8,1.8
		c0.2,0.6,0.2,1.3,0.2,1.9c0,1-0.2,2-0.5,2.8c-0.3,0.9-0.8,1.7-1.5,2.3c-0.7,0.7-1.7,1.2-2.8,1.5c-1.2,0.4-2.6,0.6-4.2,0.6h-8.8
		V91.4z M129,102.7c2.2,0,3.9-0.4,4.9-1.2c1-0.8,1.5-2,1.5-3.6s-0.5-2.7-1.5-3.5c-1-0.7-2.8-1.1-5.3-1.1h-5.9v9.4H129z M129.3,115.1
		c1.4,0,2.5-0.1,3.4-0.4c0.9-0.2,1.6-0.6,2.1-1c0.5-0.4,0.9-1,1.1-1.6c0.2-0.6,0.3-1.3,0.3-2.1c0-1.8-0.5-3.1-1.6-4
		c-1.1-0.9-2.8-1.4-5.1-1.4h-6.7v10.5H129.3z"/>
	<path class="st2" d="M178.9,91.4h2.2v25.7h-2.2V91.4z"/>
	<path class="st2" d="M222.8,91.4h2.2v13.4l13.5-13.4h2.6l-9.5,9.6l10.5,16.1h-2.7l-9.5-14.7l-4.9,4.9v9.8h-2.2V91.4z"/>
	<path class="st2" d="M281.6,91.4h16.1v1.9h-14v9.5H297v2.1h-13.2v10.2h14.6l-0.5,2h-16.2V91.4z"/>
</g>
<g id="Lines" class="st3">
	<polygon class="st2" points="279.6,93.3 279.6,91.4 243.1,91.4 241.2,93.3 	"/>
	<polygon class="st2" points="242.8,115.1 244.1,117.1 279.6,117.1 279.6,115.1 	"/>
	<polygon class="st2" points="227,115.1 227,117.1 237.4,117.1 236.2,115.1 	"/>
	<polygon class="st2" points="234.5,93.3 236.5,91.4 227,91.4 227,93.3 	"/>
	<rect x="183" y="115.1" class="st2" width="37.8" height="2"/>
	<rect x="183" y="91.4" class="st2" width="37.8" height="1.9"/>
	<polygon class="st2" points="66.5,115.1 66.5,117.1 75.9,117.1 75,115.1 	"/>
	<polygon class="st2" points="60.3,93.3 60.3,91.4 25,91.4 24.3,93.3 	"/>
	<polygon class="st2" points="15.8,115.1 15.1,117.1 60.3,117.1 60.3,115.1 	"/>
	<polygon class="st2" points="18,93.3 18.7,91.4 5.2,91.4 5.9,93.3 	"/>
	<path class="st2" d="M138.4,115.1c-0.2,0.3-0.5,0.6-0.8,0.9c-0.5,0.4-1,0.8-1.7,1.1h41v-2H138.4z"/>
	<path class="st2" d="M135.6,91.4c0.5,0.3,1,0.6,1.4,0.9c0.4,0.3,0.7,0.7,0.9,1h39v-1.9H135.6z"/>
</g>
</svg>
